<?xml version="1.0" encoding="UTF-8" standalone="no"?>
<svg
   width="2267.906"
   height="1693.8175"
   fill="none"
   version="1.1"
   id="svg5"
   xmlns="http://www.w3.org/2000/svg"
   xmlns:svg="http://www.w3.org/2000/svg">
  <path
     fill="url(#a)"
     fill-rule="evenodd"
     d="m 126.32339,475.75456 c 91.82,-72.02 225.52,-29.38 341.2,-44.74 116.38,-15.45 248.71,-115.87 343.15,-46.11 102.9,76.02 44.74,246.76 90.31,366.31 29.83,78.24 90.48,136.14 129.48001,210.23 57.92,109.99004 169.67,208.23004 155.9,331.77004 -13.52,121.26 -103.42,264.33 -224.23001,281.37 -141.96,20.03 -232.72,-220.96 -374.06,-196.99 -151.7,25.73 -172.68,330.24 -325.85,315.72 -128.6,-12.2 -110.9,-230.73 -128.15,-358.76 -12.16,-90.14 65.87,-176.25 44.1,-264.57 -26.42,-107.20004 -167.12,-163.46004 -176.72,-273.45004 -10.15,-116.29 33.01,-248.75 124.87,-320.79 z"
     clip-rule="evenodd"
     style="opacity:0.154;fill:#8080ff"
     id="path1" />
  <path
     fill="url(#b)"
     fill-rule="evenodd"
     d="m 1447.3334,115.43456 c 146.42,-19.449999 275.33,-155.839999 413.5,-103.589999 188.09,71.13 409,212.639999 407.06,413.879999 -1.94,201.25 -259.28,278.6 -414.96,405.96 -130,106.35 -240.24,294.39004 -405.6,265.30004 -163.7,-28.8 -161.93,-274.12004 -284.34,-386.66004 -134.95,-124.06 -436.00001,-101.46 -445.82001,-284.6 -9.68,-180.38 247.41,-246.3 413.54001,-316.9 101.01,-42.929999 207.83,21.06 316.62,6.61 z"
     clip-rule="evenodd"
     style="opacity:0.154;fill:#ffd42a"
     id="path2" />
  <defs
     id="defs5">
    <linearGradient
       id="b"
       x1="373"
       x2="1995.4399"
       y1="1100"
       y2="118.03"
       gradientUnits="userSpaceOnUse">
      <stop
         stop-color="#D83333"
         id="stop2" />
      <stop
         offset="1"
         stop-color="#F041FF"
         id="stop3" />
    </linearGradient>
    <linearGradient
       id="a"
       x1="107.37"
       x2="1130.66"
       y1="1993.35"
       y2="1026.3101"
       gradientUnits="userSpaceOnUse">
      <stop
         stop-color="#3245FF"
         id="stop4" />
      <stop
         offset="1"
         stop-color="#BC52EE"
         id="stop5" />
    </linearGradient>
  </defs>
</svg>
